<svg width="71" height="71" viewBox="0 0 71 71" fill="none" xmlns="http://www.w3.org/2000/svg">
<g clip-path="url(#clip0_8_1074)">
<path d="M49.1538 0.513473C37.3706 0.513473 27.8183 5.78113 27.8183 12.2886C27.8183 18.796 37.3733 24.0664 49.1538 24.0664C60.9371 24.0664 70.4893 18.796 70.4893 12.2886C70.4893 5.78113 60.9344 0.513473 49.1538 0.513473ZM70.4893 15.7867C70.4839 22.2941 60.9371 27.5645 49.1538 27.5645C37.4033 27.5645 27.873 22.3514 27.8183 15.8741V20.4809C27.8183 23.2608 29.5988 25.8059 32.5153 27.8212C35.4645 28.624 38.0915 29.7382 40.2788 31.1472C42.9905 31.8354 45.9725 32.2559 49.1538 32.2559C60.9371 32.2559 70.4893 26.9883 70.4893 20.4809V15.7867ZM70.4893 23.979C70.4893 30.4864 60.9371 35.7568 49.1538 35.7568C47.7202 35.7568 46.3275 35.6503 44.973 35.5001C46.0419 36.9395 46.771 38.6022 47.1058 40.3636C47.7857 40.4018 48.4575 40.4482 49.1538 40.4482C60.9371 40.4482 70.4893 35.1806 70.4893 28.6732V23.979ZM21.8462 30.5492C10.0629 30.5492 0.510651 35.8196 0.510651 42.327C0.510651 48.8344 10.0656 54.1048 21.8462 54.1048C33.6294 54.1048 43.1816 48.8344 43.1816 42.327C43.1816 35.8196 33.6267 30.5492 21.8462 30.5492ZM70.4893 32.1713C70.4839 38.6787 60.9371 43.9491 49.1538 43.9491C48.4684 43.9491 47.7748 43.8999 47.1058 43.8617C47.0757 44.0665 47.0593 44.3396 47.0211 44.5444C47.1576 44.9567 47.2751 45.3636 47.2751 45.8279V48.5586C47.895 48.5887 48.5176 48.6405 49.1538 48.6405C60.9371 48.6405 70.4893 43.3729 70.4893 36.8655V32.1713ZM70.4893 40.3636C70.4839 46.871 60.9371 52.1414 49.1538 52.1414C48.4684 52.1414 47.7748 52.0922 47.1058 52.054C47.0757 52.2588 47.0593 52.5319 47.0211 52.7367C47.1576 53.1463 47.2751 53.5559 47.2751 54.0202V56.7509C47.895 56.781 48.5176 56.8329 49.1538 56.8329C60.9371 56.8329 70.4893 51.5652 70.4893 45.0578V40.3636ZM43.1816 45.8251C43.1762 52.3325 33.6294 57.6029 21.8462 57.6029C10.0957 57.6029 0.565266 52.3899 0.510651 45.9098V50.5193C0.510651 57.0267 10.0602 62.2971 21.8462 62.2971C33.6321 62.2971 43.1816 57.0267 43.1816 50.5193V45.8251ZM43.1816 54.0174C43.1762 60.5249 33.6294 65.7952 21.8462 65.7952C10.0957 65.7952 0.565266 60.5822 0.510651 54.1021V58.7116C0.510651 65.219 10.0602 70.4894 21.8462 70.4894C33.6321 70.4894 43.1816 65.219 43.1816 58.7116V54.0174Z" fill="#262F60"/>
</g>
<defs>
<clipPath id="clip0_8_1074">
<rect width="71" height="71" fill="white"/>
</clipPath>
</defs>
</svg>
