<svg width="43" height="43" viewBox="0 0 43 43" fill="none" xmlns="http://www.w3.org/2000/svg">
<path fill-rule="evenodd" clip-rule="evenodd" d="M29.5088 43V26.3483H35.0988L35.9351 19.8596H29.5066V15.7165C29.5066 13.8374 30.0291 12.556 32.7252 12.556H36.1609V6.751C34.497 6.57393 32.8246 6.48781 31.1514 6.493C26.1978 6.493 22.8072 9.51805 22.8072 15.0715V19.8596H17.2V26.3483H22.8051V43H2.3736C1.0621 43 0 41.9379 0 40.6264V2.3736C0 1.0621 1.0621 0 2.3736 0H40.6264C41.9379 0 43 1.0621 43 2.3736V40.6264C43 41.9379 41.9379 43 40.6264 43H29.5088Z" fill="#262F60"/>
</svg>
