<svg width="48" height="48" viewBox="0 0 48 48" fill="none" xmlns="http://www.w3.org/2000/svg">
<path d="M24 30.5455C25.8182 30.5455 27.3636 29.9091 28.6364 28.6364C29.9091 27.3636 30.5455 25.8182 30.5455 24C30.5455 22.1818 29.9091 20.6364 28.6364 19.3636C27.3636 18.0909 25.8182 17.4545 24 17.4545C22.1818 17.4545 20.6364 18.0909 19.3636 19.3636C18.0909 20.6364 17.4545 22.1818 17.4545 24C17.4545 25.8182 18.0909 27.3636 19.3636 28.6364C20.6364 29.9091 22.1818 30.5455 24 30.5455ZM24 34.9091C20.9818 34.9091 18.4095 33.8451 16.2829 31.7171C14.1549 29.5905 13.0909 27.0182 13.0909 24C13.0909 20.9818 14.1549 18.4087 16.2829 16.2807C18.4095 14.1542 20.9818 13.0909 24 13.0909C27.0182 13.0909 29.5913 14.1542 31.7193 16.2807C33.8458 18.4087 34.9091 20.9818 34.9091 24C34.9091 27.0182 33.8458 29.5905 31.7193 31.7171C29.5913 33.8451 27.0182 34.9091 24 34.9091ZM2.18182 26.1818C1.56364 26.1818 1.04582 25.9724 0.628364 25.5535C0.209455 25.136 0 24.6182 0 24C0 23.3818 0.209455 22.8633 0.628364 22.4444C1.04582 22.0269 1.56364 21.8182 2.18182 21.8182H6.54545C7.16364 21.8182 7.68218 22.0269 8.10109 22.4444C8.51855 22.8633 8.72727 23.3818 8.72727 24C8.72727 24.6182 8.51855 25.136 8.10109 25.5535C7.68218 25.9724 7.16364 26.1818 6.54545 26.1818H2.18182ZM41.4545 26.1818C40.8364 26.1818 40.3185 25.9724 39.9011 25.5535C39.4822 25.136 39.2727 24.6182 39.2727 24C39.2727 23.3818 39.4822 22.8633 39.9011 22.4444C40.3185 22.0269 40.8364 21.8182 41.4545 21.8182H45.8182C46.4364 21.8182 46.9542 22.0269 47.3716 22.4444C47.7905 22.8633 48 23.3818 48 24C48 24.6182 47.7905 25.136 47.3716 25.5535C46.9542 25.9724 46.4364 26.1818 45.8182 26.1818H41.4545ZM24 8.72727C23.3818 8.72727 22.864 8.51782 22.4465 8.09891C22.0276 7.68145 21.8182 7.16364 21.8182 6.54545V2.18182C21.8182 1.56364 22.0276 1.04509 22.4465 0.626182C22.864 0.208727 23.3818 0 24 0C24.6182 0 25.1367 0.208727 25.5556 0.626182C25.9731 1.04509 26.1818 1.56364 26.1818 2.18182V6.54545C26.1818 7.16364 25.9731 7.68145 25.5556 8.09891C25.1367 8.51782 24.6182 8.72727 24 8.72727ZM24 48C23.3818 48 22.864 47.7905 22.4465 47.3716C22.0276 46.9542 21.8182 46.4364 21.8182 45.8182V41.4545C21.8182 40.8364 22.0276 40.3185 22.4465 39.9011C22.864 39.4822 23.3818 39.2727 24 39.2727C24.6182 39.2727 25.1367 39.4822 25.5556 39.9011C25.9731 40.3185 26.1818 40.8364 26.1818 41.4545V45.8182C26.1818 46.4364 25.9731 46.9542 25.5556 47.3716C25.1367 47.7905 24.6182 48 24 48ZM10.1455 13.2L7.8 10.9091C7.36364 10.5091 7.15418 10 7.17164 9.38182C7.19055 8.76364 7.4 8.23636 7.8 7.8C8.23636 7.36364 8.76364 7.14545 9.38182 7.14545C10 7.14545 10.5091 7.36364 10.9091 7.8L13.2 10.1455C13.6 10.5818 13.8 11.0909 13.8 11.6727C13.8 12.2545 13.6 12.7636 13.2 13.2C12.8 13.6364 12.3004 13.8451 11.7011 13.8262C11.1004 13.8087 10.5818 13.6 10.1455 13.2ZM37.0909 40.2L34.8 37.8545C34.4 37.4182 34.2 36.9004 34.2 36.3011C34.2 35.7004 34.4 35.2 34.8 34.8C35.2 34.3636 35.7004 34.1549 36.3011 34.1738C36.9004 34.1913 37.4182 34.4 37.8545 34.8L40.2 37.0909C40.6364 37.4909 40.8458 38 40.8284 38.6182C40.8095 39.2364 40.6 39.7636 40.2 40.2C39.7636 40.6364 39.2364 40.8545 38.6182 40.8545C38 40.8545 37.4909 40.6364 37.0909 40.2ZM34.8 13.2C34.3636 12.8 34.1549 12.2996 34.1738 11.6989C34.1913 11.0996 34.4 10.5818 34.8 10.1455L37.0909 7.8C37.4909 7.36364 38 7.15418 38.6182 7.17164C39.2364 7.19055 39.7636 7.4 40.2 7.8C40.6364 8.23636 40.8545 8.76364 40.8545 9.38182C40.8545 10 40.6364 10.5091 40.2 10.9091L37.8545 13.2C37.4182 13.6 36.9091 13.8 36.3273 13.8C35.7455 13.8 35.2364 13.6 34.8 13.2ZM7.8 40.2C7.36364 39.7636 7.14545 39.2364 7.14545 38.6182C7.14545 38 7.36364 37.4909 7.8 37.0909L10.1455 34.8C10.5818 34.4 11.1004 34.2 11.7011 34.2C12.3004 34.2 12.8 34.4 13.2 34.8C13.6364 35.2 13.8458 35.7004 13.8284 36.3011C13.8095 36.9004 13.6 37.4182 13.2 37.8545L10.9091 40.2C10.5091 40.6364 10 40.8451 9.38182 40.8262C8.76364 40.8087 8.23636 40.6 7.8 40.2Z" fill="#262F60"/>
</svg>
