<svg width="40" height="40" viewBox="0 0 40 40" fill="none" xmlns="http://www.w3.org/2000/svg">
<path d="M36.3281 33.6719L29.9688 27.3125C32.0226 24.6913 33.1344 21.455 33.125 18.125C33.125 15.1583 32.2453 12.2582 30.597 9.79145C28.9488 7.32472 26.6061 5.40213 23.8653 4.26681C21.1244 3.1315 18.1084 2.83445 15.1987 3.41323C12.2889 3.99201 9.61619 5.42062 7.5184 7.5184C5.42062 9.61619 3.99201 12.2889 3.41323 15.1987C2.83445 18.1084 3.1315 21.1244 4.26681 23.8653C5.40213 26.6061 7.32472 28.9488 9.79145 30.597C12.2582 32.2453 15.1583 33.125 18.125 33.125C21.455 33.1344 24.6913 32.0226 27.3125 29.9688L33.6719 36.3281C34.0257 36.6774 34.5029 36.8732 35 36.8732C35.4972 36.8732 35.9743 36.6774 36.3281 36.3281C36.5029 36.1539 36.6416 35.947 36.7363 35.719C36.8309 35.4911 36.8796 35.2468 36.8796 35C36.8796 34.7532 36.8309 34.5089 36.7363 34.281C36.6416 34.0531 36.5029 33.8461 36.3281 33.6719ZM6.87501 18.125C6.87501 15.9 7.53481 13.7249 8.77097 11.8748C10.0071 10.0248 11.7641 8.58285 13.8198 7.73136C15.8755 6.87988 18.1375 6.65709 20.3198 7.09117C22.5021 7.52526 24.5066 8.59671 26.08 10.1701C27.6533 11.7434 28.7248 13.748 29.1588 15.9302C29.5929 18.1125 29.3701 20.3745 28.5187 22.4302C27.6672 24.4859 26.2252 26.2429 24.3752 27.479C22.5251 28.7152 20.35 29.375 18.125 29.375C15.1426 29.3709 12.2835 28.1843 10.1746 26.0754C8.06573 23.9665 6.87914 21.1074 6.87501 18.125Z" fill="#262F60"/>
</svg>
