<svg width="40" height="32" viewBox="0 0 40 32" fill="none" xmlns="http://www.w3.org/2000/svg">
<path d="M0 4C0 2.93913 0.421427 1.92172 1.17157 1.17157C1.92172 0.421427 2.93913 0 4 0H36C37.0609 0 38.0783 0.421427 38.8284 1.17157C39.5786 1.92172 40 2.93913 40 4V28C40 29.0609 39.5786 30.0783 38.8284 30.8284C38.0783 31.5786 37.0609 32 36 32H4C2.93913 32 1.92172 31.5786 1.17157 30.8284C0.421427 30.0783 0 29.0609 0 28V4ZM7.038 4L20 15.342L32.962 4H7.038ZM36 6.658L21.318 19.506C20.9533 19.8256 20.4849 20.0017 20 20.0017C19.5151 20.0017 19.0467 19.8256 18.682 19.506L4 6.658V28H36V6.658Z" fill="#262F60"/>
</svg>
