<svg width="41" height="41" viewBox="0 0 41 41" fill="none" xmlns="http://www.w3.org/2000/svg">
<path d="M29.2217 41C13.1103 41 0 27.8897 0 11.7783C0.000802998 8.89683 1.05178 6.11444 2.95617 3.95201C4.86056 1.78957 7.48781 0.395362 10.3461 0.0303766C11.1952 -0.0758232 12.0559 0.0981245 12.7971 0.52578C13.5384 0.953436 14.1198 1.61141 14.4529 2.3997L18.4215 11.6401C18.6836 12.2392 18.7919 12.8943 18.7368 13.546C18.6816 14.1976 18.4647 14.8252 18.1056 15.3718L15.065 19.992C16.412 22.5375 18.4975 24.6162 21.0475 25.9548L25.6085 22.9141C26.1571 22.5518 26.787 22.3315 27.4418 22.2729C28.0966 22.2143 28.7557 22.3193 29.3599 22.5785L38.6003 26.5471C39.3886 26.8802 40.0466 27.4616 40.4742 28.2029C40.9019 28.9441 41.0758 29.8048 40.9696 30.6539C40.6046 33.5122 39.2104 36.1394 37.048 38.0438C34.8856 39.9482 32.1032 40.9992 29.2217 41ZM10.3461 4.82826C8.75779 5.1713 7.33499 6.04815 6.31468 7.31277C5.29437 8.57738 4.73814 10.1534 4.73866 11.7783C4.74388 18.27 7.32502 24.4943 11.9153 29.0847C16.5057 33.675 22.73 36.2561 29.2217 36.2613C30.8466 36.2619 32.4226 35.7056 33.6872 34.6853C34.9518 33.665 35.8287 32.2422 36.1717 30.6539L27.8791 27.0999L23.2984 30.1603C22.7287 30.5373 22.0713 30.7608 21.3899 30.8092C20.7084 30.8576 20.0261 30.7293 19.4087 30.4367C15.5763 28.5807 12.476 25.4943 10.6027 21.6702C10.3015 21.0561 10.1667 20.3737 10.2117 19.6911C10.2567 19.0086 10.4801 18.3498 10.8594 17.7806L13.9001 13.1209L10.3461 4.82826Z" fill="#262F60"/>
</svg>
