<svg width="45" height="36" viewBox="0 0 45 36" fill="none" xmlns="http://www.w3.org/2000/svg">
<path fill-rule="evenodd" clip-rule="evenodd" d="M45 4.26152C43.3125 4.99734 41.5254 5.47956 39.6968 5.69252C41.6166 4.56707 43.0598 2.77981 43.7558 0.666025C41.9401 1.72577 39.9585 2.47126 37.8945 2.87102C37.0244 1.96088 35.9784 1.23707 34.8199 0.743538C33.6615 0.250006 32.4149 -0.00295009 31.1558 2.59577e-05C26.0573 2.59577e-05 21.924 4.06802 21.924 9.09001C21.924 9.80101 22.005 10.494 22.1625 11.16C18.5051 10.9864 14.9241 10.0524 11.6479 8.41754C8.37163 6.78272 5.4721 4.48298 3.13425 1.66502C2.31432 3.04741 1.88216 4.62525 1.88325 6.23252C1.88568 7.73547 2.26259 9.21412 2.97992 10.5349C3.69724 11.8556 4.73237 12.9767 5.99175 13.797C4.52759 13.7522 3.09461 13.3629 1.809 12.6608V12.7733C1.809 17.1765 4.9905 20.8507 9.2115 21.6855C7.85168 22.0485 6.42784 22.1023 5.0445 21.843C6.219 25.452 9.62775 28.08 13.6687 28.1542C10.3838 30.6866 6.35051 32.0558 2.20275 32.0467C1.46659 32.0461 0.731091 32.0025 0 31.9162C4.23521 34.5911 9.14333 36.0073 14.1525 36C31.1332 36 40.419 22.1512 40.419 10.143C40.419 9.74926 40.41 9.35551 40.392 8.96626C42.196 7.6859 43.7565 6.0911 45 4.26152Z" fill="#262F60"/>
</svg>
